<svg id="Gradient" height="512" viewBox="0 0 512 512" width="512" xmlns="http://www.w3.org/2000/svg" xmlns:xlink="http://www.w3.org/1999/xlink"><linearGradient id="linear-gradient" gradientUnits="userSpaceOnUse" x1="256" x2="256" y1="496" y2="16"><stop offset="0" stop-color="#12c2e9"/><stop offset=".5" stop-color="#c471ed"/><stop offset="1" stop-color="#f64f59"/></linearGradient><path d="m440 288a24.027 24.027 0 0 0 24-24v-224a24.027 24.027 0 0 0 -24-24h-368a24.027 24.027 0 0 0 -24 24v224a24.027 24.027 0 0 0 24 24zm-24-48h-208v-8a8 8 0 0 0 -8-8h-80a8 8 0 0 0 -8 8v8h-16v-176h320zm-288 32v-32h64v32zm320-8a8.009 8.009 0 0 1 -8 8h-232v-16h240zm-376-232h368a8.009 8.009 0 0 1 8 8v200h-16v-184a8 8 0 0 0 -8-8h-336a8 8 0 0 0 -8 8v184h-16v-200a8.009 8.009 0 0 1 8-8zm-8 232v-8h48v16h-40a8.009 8.009 0 0 1 -8-8zm424 56h-72a8 8 0 0 0 -8-8h-128a8 8 0 0 0 -8 8h-24a8 8 0 0 0 -8-8h-128a8 8 0 0 0 -8 8h-80a8 8 0 0 0 -8 8v32a8 8 0 0 0 8 8h16v120a8 8 0 0 0 8 8h32a8 8 0 0 0 8-8v-120h16v24a8 8 0 0 0 8 8h16v48a24.027 24.027 0 0 0 -24 24v16a8 8 0 0 0 8 8h128a8 8 0 0 0 8-8v-16a24.027 24.027 0 0 0 -24-24v-48h16a8 8 0 0 0 8-8v-24h24v24a8 8 0 0 0 8 8h16v48a24.027 24.027 0 0 0 -24 24v16a8 8 0 0 0 8 8h128a8 8 0 0 0 8-8v-16a24.027 24.027 0 0 0 -24-24v-48h16a8 8 0 0 0 8-8v-24h16v120a8 8 0 0 0 8 8h32a8 8 0 0 0 8-8v-120h8a8 8 0 0 0 8-8v-32a8 8 0 0 0 -8-8zm-416 160h-16v-112h16zm-40-128v-16h72v16zm200 120v8h-112v-8a8.009 8.009 0 0 1 8-8h96a8.009 8.009 0 0 1 8 8zm-24-24h-64v-48h64zm24-64h-112v-56h112zm16-32v-16h24v16zm152 120v8h-112v-8a8.009 8.009 0 0 1 8-8h96a8.009 8.009 0 0 1 8 8zm-24-24h-64v-48h64zm24-64h-112v-56h112zm64 96h-16v-112h16zm16-128h-64v-16h64zm-320 0a8 8 0 0 1 8-8h16a8 8 0 0 1 0 16h-16a8 8 0 0 1 -8-8zm168 0a8 8 0 0 1 8-8h16a8 8 0 0 1 0 16h-16a8 8 0 0 1 -8-8z" fill="url(#linear-gradient)"/></svg>